<svg id="Component_6_10" data-name="Component 6 – 10" xmlns="http://www.w3.org/2000/svg" width="118" height="43" viewBox="0 0 118 43">
  <text id="اللوجو" transform="translate(59 32)" fill="#0a0094" font-size="22" font-family="SegoeUI-Bold, Segoe UI" font-weight="700"><tspan x="-55.107" y="0">اللوجو</tspan></text>
  <g id="slack" transform="translate(74.998 0.001)">
    <path id="Path_366" data-name="Path 366" d="M10.839,12.651a4.518,4.518,0,0,0-4.517,4.517v11.3a4.517,4.517,0,0,0,9.034,0v-11.3a4.52,4.52,0,0,0-4.517-4.517Z" transform="translate(5.003 10.016)" fill="#1766ff"/>
    <path id="Path_367" data-name="Path 367" d="M.019,17.169a4.52,4.52,0,0,0,9.041,0v-4.52H4.539a4.521,4.521,0,0,0-4.52,4.52Z" transform="translate(0.013 10.015)" fill="#1766ff"/>
    <path id="Path_368" data-name="Path 368" d="M10.846,0H10.84a4.52,4.52,0,0,0,0,9.041h4.517V4.51A4.513,4.513,0,0,0,10.846,0Z" transform="translate(5.002 0)" fill="#1766ff"/>
    <path id="Path_369" data-name="Path 369" d="M4.522,15.365h11.32a4.52,4.52,0,1,0,0-9.041H4.522a4.52,4.52,0,1,0,0,9.041Z" transform="translate(0 5.007)" fill="#1766ff"/>
    <path id="Path_370" data-name="Path 370" d="M23.45,6.323a4.511,4.511,0,0,0-4.511,4.511v4.529h4.517a4.52,4.52,0,1,0,0-9.041Z" transform="translate(14.992 5.006)" fill="#1766ff"/>
    <path id="Path_371" data-name="Path 371" d="M12.641,4.518V15.85a4.517,4.517,0,1,0,9.034,0V4.518a4.517,4.517,0,0,0-9.034,0Z" transform="translate(10.006 0.002)" fill="#1766ff"/>
    <g id="Group_102" data-name="Group 102" transform="translate(22.642 22.664)">
      <path id="Path_372" data-name="Path 372" d="M21.674,23.472a4.518,4.518,0,0,0-4.517-4.517H12.64v4.52a4.517,4.517,0,0,0,9.034,0Z" transform="translate(-12.636 -7.657)" fill="#1766ff"/>
      <path id="Path_373" data-name="Path 373" d="M28.478,12.649H17.158a4.52,4.52,0,0,0,0,9.041h11.32a4.52,4.52,0,0,0,0-9.041Z" transform="translate(-12.638 -12.649)" fill="#1766ff"/>
    </g>
  </g>
</svg>
