<svg xmlns="http://www.w3.org/2000/svg" xmlns:xlink="http://www.w3.org/1999/xlink" width="47.409" height="47.409" viewBox="0 0 47.409 47.409">
  <defs>
    <clipPath id="clip-path">
      <path id="Path_737" data-name="Path 737" d="M200.628,51.462a23.08,23.08,0,1,1-23.08-23.08A23.079,23.079,0,0,1,200.628,51.462Z" transform="translate(-154.469 -28.382)" fill="#60afba"/>
    </clipPath>
  </defs>
  <g id="Group_341" data-name="Group 341" transform="translate(-153.844 -27.757)">
    <g id="Group_340" data-name="Group 340" transform="translate(154.469 28.382)">
      <path id="Path_724" data-name="Path 724" d="M200.628,51.462a23.08,23.08,0,1,1-23.08-23.08A23.079,23.079,0,0,1,200.628,51.462Z" transform="translate(-154.469 -28.382)" fill="none" stroke="#1766ff" stroke-width="1.25"/>
      <g id="Group_339" data-name="Group 339" clip-path="url(#clip-path)">
        <g id="Group_338" data-name="Group 338" transform="translate(7.169 2.988)">
          <path id="Path_725" data-name="Path 725" d="M200.919,112.614c-1.45-1.809-12.93-5.779-12.93-5.779s-11.24,4.392-12.932,5.779-2.324,10.156-2.324,10.156h30.18S202.369,114.422,200.919,112.614Z" transform="translate(-172.733 -79.029)" fill="#0a0094"/>
          <path id="Path_726" data-name="Path 726" d="M209.57,103.848a2.728,2.728,0,0,1-1.6,1.762c-.491.219-1.128,3.018-1.953,3.018-.871,0-1.534-2.815-2.035-3.056a2.716,2.716,0,0,1-1.52-1.724,4.734,4.734,0,0,0,0-3.745c-.866-2.022,8.171-2.432,7.111,0S209.57,103.848,209.57,103.848Z" transform="translate(-190.756 -73.923)" fill="#d79563"/>
          <path id="Path_727" data-name="Path 727" d="M204.254,57.868c.662-2.971,1.461-7.344,1.461-7.344,2.738-6.124-.1-15.355-5.411-12.518-6.57-6-16.965,2.392-13.449,12.435a70.566,70.566,0,0,0,1.109,7.524c.769,3.292,6.442,5.739,8.174,5.835S203.554,61.015,204.254,57.868Z" transform="translate(-180.882 -35.994)" fill="#1d100f"/>
          <path id="Path_728" data-name="Path 728" d="M232.109,74.049c0,1.6-1.138,3.809-1.9,3.809s-1.389-1.3-1.389-2.906a3.444,3.444,0,0,1,1.389-2.9C230.947,71.466,232.109,72.048,232.109,74.049Z" transform="translate(-206.803 -57.766)" fill="#f9ab78"/>
          <path id="Path_729" data-name="Path 729" d="M186.582,74.049c0,1.6,1.138,3.809,1.9,3.809s1.389-1.3,1.389-2.906a3.445,3.445,0,0,0-1.389-2.9C187.744,71.466,186.582,72.048,186.582,74.049Z" transform="translate(-181.146 -57.766)" fill="#f9ab78"/>
          <path id="Path_730" data-name="Path 730" d="M199.945,45.073c-5.39,0-7.773,3.777-7.773,9.409v7.054c0,4.906,5.668,9.1,7.46,9.1s8.085-4.906,8.085-9.554v-6.6C207.717,48.85,205.335,45.073,199.945,45.073Z" transform="translate(-184.542 -41.51)" fill="#f9ab78"/>
          <path id="Path_731" data-name="Path 731" d="M207.288,57.711l.486-4.11c0-5.633-2.868-9.83-8.258-9.83s-8.05,4.2-8.05,9.83l.277,5.014a5.263,5.263,0,0,0,.582-2.664c-.13-3.616,2.4-3.938,5.35-4.5,4.649-.887,5.955-3.675,5.955-3.675a4.834,4.834,0,0,1,2.5,2.788,12.536,12.536,0,0,1,.728,4.638A9.909,9.909,0,0,0,207.288,57.711Z" transform="translate(-184.113 -40.719)" fill="#1d100f"/>
          <g id="Group_337" data-name="Group 337" transform="translate(6.978 12.883)">
            <path id="Path_732" data-name="Path 732" d="M195.07,68.815c-2.085,0-3.389.775-3.389,1.6,0,1.307.477,3.43,2.548,3.68,2,.242,4.619-.484,4.619-3.825C198.848,69.493,197.157,68.815,195.07,68.815Zm-.692,4.9c-1.773-.214-2.181-2.031-2.181-3.15,0-.7,1.116-1.368,2.9-1.368s3.234.581,3.234,1.243C198.332,73.3,196.094,73.924,194.378,73.716Z" transform="translate(-191.221 -68.815)" fill="#0a0094"/>
            <path id="Path_733" data-name="Path 733" d="M210.75,72.475a.717.717,0,0,0-.786-.509c-.471,0-.592.558-.592.558l-.25-1.471a1.267,1.267,0,0,0,.574.3,2.276,2.276,0,0,0,.63,0,.93.93,0,0,0,.423-.3Z" transform="translate(-201.817 -70.175)" fill="#0a0094"/>
            <path id="Path_734" data-name="Path 734" d="M191.26,73.555s-.75-.054-.75-.438V71.957c0-.605.75-.413.75-.413Z" transform="translate(-190.51 -70.456)" fill="#0a0094"/>
            <path id="Path_735" data-name="Path 735" d="M212.413,70.268c0,3.341,2.615,4.067,4.619,3.825,2.071-.25,2.547-2.373,2.547-3.68,0-.823-1.3-1.6-3.39-1.6S212.413,69.493,212.413,70.268Zm.516.173c0-.663,1.447-1.243,3.233-1.243s2.9.663,2.9,1.368c0,1.119-.408,2.936-2.18,3.15C215.168,73.924,212.929,73.3,212.929,70.441Z" transform="translate(-203.816 -68.815)" fill="#0a0094"/>
            <path id="Path_736" data-name="Path 736" d="M229.929,73.555s.75-.054.75-.438V71.957c0-.605-.75-.413-.75-.413Z" transform="translate(-214.457 -70.456)" fill="#0a0094"/>
          </g>
        </g>
      </g>
    </g>
  </g>
</svg>
